<?xml version="1.0" ?><!DOCTYPE svg  PUBLIC '-//W3C//DTD SVG 1.1//EN'  'http://www.w3.org/Graphics/SVG/1.1/DTD/svg11.dtd'><svg enable-background="new 0 0 32 32" height="32px" id="Layer_1" version="1.1" viewBox="0 0 32 32" width="32px" xml:space="preserve" xmlns="http://www.w3.org/2000/svg" xmlns:xlink="http://www.w3.org/1999/xlink"><g><polyline fill="none" points="   649,137.999 675,137.999 675,155.999 661,155.999  " stroke="#FFFFFF" stroke-linecap="round" stroke-linejoin="round" stroke-miterlimit="10" stroke-width="2"/><polyline fill="none" points="   653,155.999 649,155.999 649,141.999  " stroke="#FFFFFF" stroke-linecap="round" stroke-linejoin="round" stroke-miterlimit="10" stroke-width="2"/><polyline fill="none" points="   661,156 653,162 653,156  " stroke="#FFFFFF" stroke-linecap="round" stroke-linejoin="round" stroke-miterlimit="10" stroke-width="2"/></g><g><g><path d="M2.982,17h26.035c0.397,0,0.756-0.244,0.908-0.617c0.152-0.374,0.068-0.804-0.213-1.09l-11.789-12    c-0.384-0.391-1.005-0.391-1.389,0s-0.384,1.023,0,1.414L26.646,15H2.982C2.439,15,2,15.448,2,16S2.439,17,2.982,17z"/></g><g><path d="M17.228,29c0.251,0,0.503-0.098,0.695-0.293l7.86-8c0.384-0.391,0.384-1.023,0-1.414s-1.005-0.391-1.389,0l-7.86,8    c-0.384,0.391-0.384,1.023,0,1.414C16.725,28.902,16.977,29,17.228,29z"/></g></g></svg>