<?xml version="1.0" ?><svg data-name="Layer 1" id="Layer_1" viewBox="0 0 32 32" xmlns="http://www.w3.org/2000/svg"><defs><style>.cls-1{fill:#515151;}</style></defs><title/><path class="cls-1" d="M16,13a3,3,0,1,0,3,3A3,3,0,0,0,16,13Zm0,4.5A1.5,1.5,0,1,1,17.5,16,1.5,1.5,0,0,1,16,17.5Z"/><path class="cls-1" d="M26,13a3,3,0,1,0,3,3A3,3,0,0,0,26,13Zm0,4.5A1.5,1.5,0,1,1,27.5,16,1.5,1.5,0,0,1,26,17.5Z"/><path class="cls-1" d="M6,13a3,3,0,1,0,3,3A3,3,0,0,0,6,13Zm0,4.5A1.5,1.5,0,1,1,7.5,16,1.5,1.5,0,0,1,6,17.5Z"/></svg>