<?xml version="1.0" ?><svg id="Layer_1" style="enable-background:new 0 0 30 30;" version="1.1" viewBox="0 0 30 30" xml:space="preserve" xmlns="http://www.w3.org/2000/svg" xmlns:xlink="http://www.w3.org/1999/xlink"><path d="M25.707,9.793l-5.5-5.5C20.019,4.105,19.765,4,19.5,4H11C9.895,4,9,4.895,9,6v18c0,1.105,0.895,2,2,2h13  c1.105,0,2-0.895,2-2V10.5C26,10.235,25.895,9.981,25.707,9.793z M19,21h-5c-0.552,0-1-0.448-1-1c0-0.552,0.448-1,1-1h5  c0.552,0,1,0.448,1,1C20,20.552,19.552,21,19,21z M21,17h-7c-0.552,0-1-0.448-1-1c0-0.552,0.448-1,1-1h7c0.552,0,1,0.448,1,1  C22,16.552,21.552,17,21,17z M20,11c-0.552,0-1-0.448-1-1V5.904L24.096,11H20z"/><path d="M7,24V6c0-0.732,0.212-1.409,0.556-2H6C4.895,4,4,4.895,4,6v18c0,1.105,0.895,2,2,2h1.556C7.212,25.409,7,24.732,7,24z"/></svg>