<?xml version="1.0" ?><svg id="Layer_1" style="enable-background:new 0 0 30 30;" version="1.1" viewBox="0 0 30 30" xml:space="preserve" xmlns="http://www.w3.org/2000/svg" xmlns:xlink="http://www.w3.org/1999/xlink"><path d="M10,4H6C4.895,4,4,4.895,4,6v4c0,1.105,0.895,2,2,2h4c1.105,0,2-0.895,2-2V6C12,4.895,11.105,4,10,4z M10,10H6V6h4V10z M9,9  H7V7h2V9z"/><path d="M10,18H6c-1.105,0-2,0.895-2,2v4c0,1.105,0.895,2,2,2h4c1.105,0,2-0.895,2-2v-4C12,18.895,11.105,18,10,18z M10,24H6v-4h4  V24z M9,23H7v-2h2V23z"/><path d="M24,4h-4c-1.105,0-2,0.895-2,2v4c0,1.105,0.895,2,2,2h4c1.105,0,2-0.895,2-2V6C26,4.895,25.105,4,24,4z M24,10h-4V6h4V10z   M23,9h-2V7h2V9z"/><rect height="2" width="2" x="14" y="6"/><rect height="2" width="2" x="14" y="10"/><rect height="2" width="2" x="14" y="14"/><rect height="2" width="2" x="10" y="14"/><rect height="2" width="2" x="6" y="14"/><rect height="2" width="2" x="18" y="14"/><rect height="2" width="2" x="22" y="14"/><rect height="2" width="2" x="16" y="16"/><rect height="2" width="2" x="20" y="16"/><rect height="2" width="2" x="18" y="18"/><rect height="2" width="2" x="14" y="18"/><rect height="2" width="2" x="16" y="20"/><rect height="2" width="2" x="18" y="22"/><rect height="2" width="2" x="16" y="24"/><rect height="2" width="2" x="24" y="16"/><rect height="2" width="2" x="24" y="20"/><rect height="2" width="2" x="20" y="20"/><rect height="2" width="2" x="20" y="24"/><rect height="2" width="2" x="22" y="22"/><rect height="2" width="2" x="22" y="18"/><rect height="2" width="2" x="14" y="22"/></svg>