<svg xmlns="http://www.w3.org/2000/svg" viewBox="0 0 250 74.13" width="250" height="74"><defs><style>.kmd_subscribe_cls-1{fill:#567f7f;}.kmd_subscribe_cls-2{fill:#fbb73f;}.kmd_subscribe_cls-3{fill:#2f6363;}.kmd_subscribe_cls-4{fill:#f8a627;}.kmd_subscribe_cls-5{fill:#2f6365;}</style></defs><g id="_998408992" data-name=" 998408992"><path class="kmd_subscribe_cls-1" d="M10.29,61.84l1.89,1.89c8.3,3.47,16.58,7,24.89,10.41V59L21.55,52.58,15.12,37.07l6.43-15.52L10.29,12.29,0,37.07Z"/><path class="kmd_subscribe_cls-2" d="M37.07,0c-8.3,3.44-16.59,6.93-24.89,10.41l-1.89,1.89,11.26,9.25,15.52-6.43Z"/><polygon class="kmd_subscribe_cls-1" points="37.06 21.55 26.09 26.09 21.55 37.06 26.09 48.03 37.06 52.58 37.06 21.55"/><path class="kmd_subscribe_cls-3" d="M37.07,74.13c8.3-3.45,16.59-6.94,24.89-10.41l1.89-1.89L74.13,37.07,63.84,12.29,52.58,21.55,59,37.07,52.58,52.58,37.07,59Z"/><path class="kmd_subscribe_cls-4" d="M63.84,12.29,62,10.41C53.66,6.93,45.37,3.44,37.07,0V15.12l15.52,6.43Z"/><polygon class="kmd_subscribe_cls-3" points="37.06 52.58 48.04 48.03 52.58 37.06 48.04 26.09 37.06 21.55 37.06 52.58"/></g></svg>
