<svg xmlns="http://www.w3.org/2000/svg" xmlns:xlink="http://www.w3.org/1999/xlink" version="1.1" id="Calque_1" x="0px" y="0px" width="50px" height="50px" viewBox="0 0 50 50" style="enable-background:new 0 0 148 50;" xml:space="preserve">
<style type="text/css">

	.st2{fill:url(#SVGID_1_);}
	.st3{fill:url(#SVGID_2_);}
	.st4{fill:url(#SVGID_3_);}
	.st5{fill:url(#SVGID_4_);}
</style>
<g>
	<g>
		<path class="st0" d="M25.3,2.7c12.4,0,22.5,10.1,22.5,22.5S37.7,47.7,25.3,47.7S2.8,37.6,2.8,25.2S12.9,2.7,25.3,2.7 M25.3,0.9    C11.8,0.9,0.9,11.8,0.9,25.2c0,13.5,10.9,24.4,24.4,24.4c13.5,0,24.4-10.9,24.4-24.4C49.6,11.8,38.7,0.9,25.3,0.9L25.3,0.9z"/>
	</g>
	<path class="st1" d="M15.9,17.9"/>
	<g>
		<g>
			<linearGradient id="SVGID_1_" gradientUnits="userSpaceOnUse" x1="27.0903" y1="25.233" x2="39.8986" y2="25.233">
				<stop offset="0" style="stop-color:#B92484"/>
				<stop offset="2.267800e-02" style="stop-color:#B92484"/>
				<stop offset="1" style="stop-color:#7D358B"/>
			</linearGradient>
			<path class="st2" d="M39.9,34.5c-0.2-1.2-0.6-2.4-0.9-3.5c-0.3-1.2-0.6-2.4-0.9-3.6c-0.8-3-1.6-6-2.4-9c-0.2-0.7-0.3-1.4-0.5-2.1     c-0.1-0.3-0.2-0.7-0.5-0.9c-0.3-0.1-0.6-0.1-0.9-0.1c-0.4,0-0.8,0-1.2,0c-0.8,0-1.7,0-2.5,0c-0.6,0-1.1,0-1.7,0.1     c-0.5,0.1-1,0.4-1.2,0.9c-0.1,0.2,0,0.5,0.2,0.6c0.1,0.1,0.3,0,0.4-0.1c0.1,0,0.4-0.3,0.5-0.3l4.7,17.3l0,0c0,0,0,0.1,0,0.1     c0.1,0.4,0.3,0.8,0.6,0.9c0.2,0.1,0.4,0.2,0.7,0.2h0.5h0.8h2.4h1.3C39.6,35.1,40,34.9,39.9,34.5z"/>
		</g>
		<g>
			<linearGradient id="SVGID_2_" gradientUnits="userSpaceOnUse" x1="15.5385" y1="25.233" x2="28.3467" y2="25.233">
				<stop offset="0" style="stop-color:#B92484"/>
				<stop offset="2.267800e-02" style="stop-color:#B92484"/>
				<stop offset="1" style="stop-color:#7D358B"/>
			</linearGradient>
			<path class="st3" d="M28.3,34.5c-0.2-1.2-0.6-2.4-0.9-3.5c-0.3-1.2-0.6-2.4-0.9-3.6c-0.8-3-1.6-6-2.4-9c-0.2-0.7-0.3-1.4-0.5-2.1     c-0.1-0.3-0.2-0.7-0.5-0.9c-0.3-0.1-0.6-0.1-0.9-0.1c-0.4,0-0.8,0-1.2,0c-0.8,0-1.7,0-2.5,0c-0.6,0-1.1,0-1.7,0.1     c-0.5,0.1-1,0.4-1.2,0.9c-0.1,0.2,0,0.5,0.2,0.6c0.1,0.1,0.3,0,0.4-0.1c0.1,0,0.4-0.3,0.5-0.3l4.7,17.3l0,0c0,0,0,0.1,0,0.1     c0.1,0.4,0.3,0.8,0.6,0.9c0.2,0.1,0.4,0.2,0.7,0.2h0.5h0.8h2.4h1.3C28,35.1,28.4,34.9,28.3,34.5z"/>
		</g>
		<linearGradient id="SVGID_3_" gradientUnits="userSpaceOnUse" x1="10.6421" y1="26.4844" x2="19.0604" y2="26.4844">
			<stop offset="0" style="stop-color:#B92484"/>
			<stop offset="2.267800e-02" style="stop-color:#B92484"/>
			<stop offset="1" style="stop-color:#7D358B"/>
		</linearGradient>
		<path class="st4" d="M19.1,30.7l-3.2-12.5h0c0-0.2-0.2-0.4-0.5-0.4c-0.2,0-0.4,0.2-0.5,0.4l0,0L10.7,34l0,0c0,0.1,0,0.2,0,0.2    c0,0.5,0.4,1,1,1H17c0.4,0,0.8-0.3,0.9-0.7l0,0L19.1,30.7z"/>
		<linearGradient id="SVGID_4_" gradientUnits="userSpaceOnUse" x1="25.9319" y1="25.223" x2="30.8865" y2="25.223">
			<stop offset="0" style="stop-color:#B92484"/>
			<stop offset="2.267800e-02" style="stop-color:#B92484"/>
			<stop offset="1" style="stop-color:#7D358B"/>
		</linearGradient>
		<path class="st5" d="M30.9,30.4l-3.5-12.6h0c0-0.2-0.2-0.3-0.4-0.3c-0.2,0-0.4,0.1-0.4,0.3h0l-0.7,2.5l3.5,12.2l0,0l0,0    c0.1,0.2,0.2,0.3,0.4,0.3c0.2,0,0.3-0.1,0.4-0.3l0,0L30.9,30.4z"/>
	</g>








</g>
</svg>
