<?xml version="1.0" ?><svg style="enable-background:new 0 0 48 48;" version="1.1" viewBox="0 0 48 48" xml:space="preserve" xmlns="http://www.w3.org/2000/svg" xmlns:xlink="http://www.w3.org/1999/xlink"><style type="text/css">
	.st0{display:none;}
	.st1{fill:none;stroke:#04050A;stroke-width:0.7;stroke-linecap:round;stroke-linejoin:round;stroke-miterlimit:10;}
	.st2{fill:#04050A;}
</style><g class="st0" id="Padding__x26__Artboard"/><g id="Icons"><g><g><circle class="st1" cx="24" cy="24" r="12.244"/></g><g><path class="st1" d="M15.15215,24.5226c0,0,2.00649,1.63687,6.99631,1.58407"/><path class="st2" d="M19.50464,25.96163c0.17131,0.19669,0.27283,0.45049,0.27283,0.72332     c0,0.62815-0.50125,1.1294-1.12939,1.1294c-0.6218,0-1.1294-0.50125-1.1294-1.1294c0-0.41876,0.22842-0.78042,0.57104-0.97077     l0.47932,0.09953C18.56904,25.81371,19.43601,25.95249,19.50464,25.96163z"/><path class="st1" d="M32.84785,24.5226c0,0-2.00649,1.63687-6.99631,1.58407"/><path class="st2" d="M29.91028,25.71417c0.34262,0.19035,0.57104,0.55201,0.57104,0.97077     c0,0.62815-0.50759,1.1294-1.1294,1.1294c-0.62815,0-1.12939-0.50125-1.12939-1.1294c0-0.27283,0.10152-0.52663,0.27283-0.72332     L29.91028,25.71417z"/><ellipse class="st2" cx="24.12855" cy="30.68728" rx="3.48496" ry="0.48842"/></g></g></g></svg>
