<?xml version="1.0" ?><svg id="Layer_1" style="enable-background:new 0 0 30 30;" version="1.1" viewBox="0 0 30 30" xml:space="preserve" xmlns="http://www.w3.org/2000/svg" xmlns:xlink="http://www.w3.org/1999/xlink"><circle cx="22" cy="25" r="2"/><circle cx="12" cy="25" r="2"/><path d="M2,3  h1.878c0.665,0,1.251,0.438,1.439,1.077l4.261,14.488C9.828,19.415,10.609,20,11.496,20h10.976c0.902,0,1.692-0.604,1.93-1.474L27,9  h-5" style="fill:none;stroke:#000000;stroke-width:2;stroke-linecap:round;stroke-linejoin:round;stroke-miterlimit:10;"/><path d="M18,9v5.586l2.293-2.293c0.391-0.391,1.023-0.391,1.414,0s0.391,1.023,0,1.414l-4,4C17.512,17.902,17.256,18,17,18  s-0.512-0.098-0.707-0.293l-4-4c-0.391-0.391-0.391-1.023,0-1.414s1.023-0.391,1.414,0L16,14.586V9H7l3.5,11H24l3-11H18z"/><path d="M18,3c0-0.552-0.448-1-1-1s-1,0.448-1,1v5h2V3z"/><line style="fill:none;stroke:#000000;stroke-width:2;stroke-linejoin:round;stroke-miterlimit:10;" x1="18" x2="23" y1="9" y2="9"/><line style="fill:none;stroke:#000000;stroke-width:2;stroke-linejoin:round;stroke-miterlimit:10;" x1="7" x2="16" y1="9" y2="9"/></svg>