<?xml version="1.0" ?><!DOCTYPE svg  PUBLIC '-//W3C//DTD SVG 1.1//EN'  'http://www.w3.org/Graphics/SVG/1.1/DTD/svg11.dtd'><svg enable-background="new 0 0 24 24" height="24px" id="Layer_1" version="1.1" viewBox="0 0 24 24" width="24px" xml:space="preserve" xmlns="http://www.w3.org/2000/svg" xmlns:xlink="http://www.w3.org/1999/xlink"><path d="M23.2,6c-0.2-0.1-0.4-0.1-0.5,0l-3.5,2.7V7.5c0-1.6-1.3-2.9-2.9-2.9H3.4c-1.6,0-2.9,1.3-2.9,2.9v9c0,1.6,1.3,2.9,2.9,2.9  h12.9c1.6,0,2.9-1.3,2.9-2.9v-1.2l3.5,2.7c0.1,0.1,0.3,0.1,0.5,0c0.2-0.1,0.3-0.2,0.3-0.4V6.4C23.5,6.2,23.4,6.1,23.2,6z"/></svg>