<?xml version="1.0" ?><!DOCTYPE svg  PUBLIC '-//W3C//DTD SVG 1.1//EN'  'http://www.w3.org/Graphics/SVG/1.1/DTD/svg11.dtd'><svg enable-background="new 0 0 64 64" height="64px" id="Layer_1" version="1.1" viewBox="0 0 64 64" width="64px" xml:space="preserve" xmlns="http://www.w3.org/2000/svg" xmlns:xlink="http://www.w3.org/1999/xlink"><path d="M64.029,18.88c-0.17-11.319-9.757-10.737-9.757-10.737c-0.736,0.013-8.642,0.33-8.688,7.777  c-0.003,0.035,0,0.078-0.003,0.114v0.023c-0.006,0.362,0.003,0.826,0.023,1.339l-0.006,0.005v3.039  c-0.003,0.021-0.012,0.038-0.018,0.059c-0.003,0.417-0.009,0.812-0.009,1.18H45.57c0,0,0.017,1.961-1.046,2.814  c-0.133,0.089-0.266,0.182-0.416,0.245c-0.055,0.021-0.115,0.035-0.173,0.052c-0.226,0.072-0.46,0.127-0.708,0.127  c-1.312,0-2.374-1.062-2.374-2.372c0-0.038,0.012-0.069,0.012-0.104c0-0.014-0.003-0.02-0.003-0.035v-3.635h-0.003v-0.001  c0-0.783-0.639-1.419-1.421-1.419c-0.786,0-1.422,0.637-1.422,1.419v0.001v4.12c0,3.493,3.181,4.631,3.818,4.824  c0.534,0.095,1.101,0.159,1.719,0.159c3.01-0.075,4.327-2.469,4.855-3.952c0.006-0.012,0.012-0.026,0.018-0.041  c0.014-0.043,0.031-0.113,0.049-0.163c0.037-0.107,0.066-0.207,0.095-0.299c0.012-0.049,0.026-0.09,0.041-0.142  c0.081-0.309,0.112-0.505,0.112-0.505l-0.003-0.001c0.125-0.636,0.229-1.45,0.237-2.52v-2.449c0-0.289,0.021-0.546,0.038-0.805  c-0.009-0.123-0.038-0.238-0.038-0.361c0-3.005,2.438-5.441,5.439-5.441c2.963,0,5.36,2.367,5.43,5.313h0.012v0.104  c0,0.008,0.003,0.016,0.003,0.024s-0.003,0.016-0.003,0.024v3.945c0.003,0.061,0.017,0.116,0.017,0.175h0.012V21  c0,0.049,0.009,0.098,0.009,0.15c0,0.026-0.009,0.051-0.009,0.078v5.214v4.038c0,2.204-1.56,2.181-2.2,2.083  c-1.698-0.353-3.148-0.896-3.148-0.896l0.023,0.043c-1.785-0.604-3.724-0.965-5.771-0.965c-2.94,0-5.664,0.702-7.992,1.886  l-0.009-0.018c0,0-0.063,0.041-0.165,0.104c-0.471,0.249-0.921,0.517-1.354,0.803c-1.796,0.999-4.852,2.461-7.377,2.473  c-3.728-0.061-7.632-2.819-7.632-2.819v0.021c-2.526-1.528-5.631-2.449-9.01-2.449c-1.744,0-3.407,0.263-4.968,0.708v-0.026  c0,0-2.654,0.837-5.164,1.23c-1.359,0.254-1.541-0.806-1.558-1.265V22.45c0-0.023-0.007-0.045-0.007-0.068  c0-0.043,0.006-0.085,0.007-0.128v-0.187h0.008c0.003-0.05,0.013-0.1,0.016-0.148v-3.385c0-0.009-0.001-0.014-0.001-0.023  c0-0.006,0.001-0.015,0.001-0.021v-0.089h0.009c0.059-2.527,2.116-4.558,4.657-4.558c2.579,0,4.667,2.088,4.667,4.667  c0,0.107-0.023,0.205-0.03,0.311c0.014,0.222,0.03,0.443,0.03,0.689v2.103c0.006,0.918,0.095,1.617,0.205,2.162l-0.006,0.001  c0,0,0.029,0.167,0.1,0.434c0.012,0.044,0.023,0.079,0.035,0.122c0.023,0.081,0.051,0.165,0.08,0.257  c0.014,0.043,0.03,0.101,0.043,0.139c0.005,0.011,0.011,0.026,0.016,0.038c0.454,1.271,1.584,3.324,4.165,3.388  c0.53,0,1.015-0.055,1.474-0.136c0.549-0.167,3.277-1.144,3.277-4.14v-3.535h-0.061c0.004-0.039,0.023-0.074,0.023-0.116  c0-0.663-0.539-1.201-1.201-1.201c-0.663,0-1.202,0.539-1.202,1.201c0,0.042,0.019,0.077,0.023,0.116h-0.023v3.119  c0,0.012-0.003,0.018-0.003,0.029c0.001,0.03,0.009,0.058,0.009,0.089c0,1.124-0.912,2.037-2.035,2.037  c-0.215,0-0.416-0.049-0.609-0.11c-0.049-0.015-0.101-0.026-0.147-0.046c-0.13-0.052-0.243-0.133-0.358-0.211  c-0.913-0.73-0.898-2.412-0.898-2.412l0,0c-0.003-0.316-0.006-0.656-0.009-1.014c-0.003-0.018-0.012-0.033-0.015-0.051v-2.606  l-0.004-0.004c0.016-0.44,0.025-0.836,0.019-1.148v-0.02c0-0.032,0-0.069-0.001-0.098c-0.039-6.389-6.821-6.66-7.453-6.672  c0,0-8.226-0.5-8.372,9.21h-0.013v15.523v2.039v4.292c0,2.498,0.491,4.23,0.917,5.279c2.126,4.835,7.745,8.295,14.357,8.295  c6.276,0,11.651-3.116,13.998-7.567l0.004,0.003c0,0,0.018-0.034,0.032-0.066c0.018-0.034,0.035-0.066,0.052-0.101  c0.251-0.488,1.115-1.964,2.428-1.964H32c1.434-0.003,2.306,1.265,2.649,1.886c0.04,0.087,0.084,0.167,0.127,0.251  c0.023,0.052,0.04,0.087,0.04,0.087l0.006-0.006c2.371,4.401,7.715,7.478,13.948,7.478c5.95,0,11.097-2.799,13.618-6.88  c0.407-0.685,1.655-3.001,1.655-5.678v-6.257v-1.068v-1.45v-1.062V30.48v-4.038V18.88H64.029z M7.785,41.086  c7.806-9.052,17.191,0.456,17.191,0.456C18.665,49.887,10.279,45.404,7.785,41.086z M39.025,41.542c0,0,9.384-9.508,17.191-0.456  C53.722,45.404,45.336,49.887,39.025,41.542z" fill="#241F20"/></svg>