<svg xmlns="http://www.w3.org/2000/svg" viewBox="0 0 250 74.13" width="250" height="74"><defs><style>.kmd_subscribe_cls-1{fill:#567f7f;}.kmd_subscribe_cls-2{fill:#fbb73f;}.kmd_subscribe_cls-3{fill:#2f6363;}.kmd_subscribe_cls-4{fill:#f8a627;}.kmd_subscribe_cls-5{fill:#2f6365;}</style></defs><g id="_998408992" data-name=" 998408992"><path class="kmd_subscribe_cls-1" d="M10.29,61.84l1.89,1.89c8.3,3.47,16.58,7,24.89,10.41V59L21.55,52.58,15.12,37.07l6.43-15.52L10.29,12.29,0,37.07Z"></path><path class="kmd_subscribe_cls-2" d="M37.07,0c-8.3,3.44-16.59,6.93-24.89,10.41l-1.89,1.89,11.26,9.25,15.52-6.43Z"></path><polygon class="kmd_subscribe_cls-1" points="37.06 21.55 26.09 26.09 21.55 37.06 26.09 48.03 37.06 52.58 37.06 21.55"></polygon><path class="kmd_subscribe_cls-3" d="M37.07,74.13c8.3-3.45,16.59-6.94,24.89-10.41l1.89-1.89L74.13,37.07,63.84,12.29,52.58,21.55,59,37.07,52.58,52.58,37.07,59Z"></path><path class="kmd_subscribe_cls-4" d="M63.84,12.29,62,10.41C53.66,6.93,45.37,3.44,37.07,0V15.12l15.52,6.43Z"></path><polygon class="kmd_subscribe_cls-3" points="37.06 52.58 48.04 48.03 52.58 37.06 48.04 26.09 37.06 21.55 37.06 52.58"></polygon></g><g id="_998397216" data-name=" 998397216"><path class="kmd_subscribe_cls-5" d="M149.07,37l8.67-13.13h4.81L163.28,37v.31c-.69,4.29-1.4,8.57-2.11,12.86h-5.77c.73-4.37,1.46-8.74,2.16-13.11l-.24-2.44-8.24,12.26-8.23-12.26L140.6,37c.7,4.37,1.44,8.74,2.16,13.11H137q-1.07-6.43-2.11-12.86l0-.31.73-13.06h4.81Z"></path><path class="kmd_subscribe_cls-5" d="M86,23.87h5.78V33.8L95,31l3.72-7.12H106l-1.37,2.19-4.73,7.59,4.73,6.56.17.31,3.75,9.6H102l-3.24-8.3-3-4.11-4,3.33v9.08H86Z"></path><path class="kmd_subscribe_cls-5" d="M209.6,24l4.83,2,.78.77q2.13,5.1,4.24,10.2-2.11,5.09-4.23,10.17l-.77.77-4.83,2-.55.12H194l.51-13.06L194,23.92h15.09Zm-1.91,5.42-7.82.12.37,7.43v.14l-.37,7.45,7.82,0,2.92-1.21,1.32-3.18L213.23,37l-1.32-3.19-1.32-3.18Z"></path><path class="kmd_subscribe_cls-3" d="M223.63,47.29l.78.78q5.14,2.15,10.28,4.3,5.14-2.13,10.28-4.3l.78-.78L250,37.07l-4.25-10.23-.78-.78-9.18-3.84-.55-.23-.55-.23-.55.23-.55.23-9.18,3.84-.78.78-4.25,10.23ZM234.69,28l6.41,2.65,2.66,6.41-2.66,6.41-6.41,2.66-6.41-2.66-2.66-6.41,2.66-6.41Z"></path><polygon class="kmd_subscribe_cls-4" points="245.75 26.83 244.97 26.05 235.79 22.21 235.24 21.98 234.69 21.75 234.14 21.98 233.59 22.21 224.41 26.05 223.63 26.83 228.28 30.65 234.69 28 241.1 30.65 245.75 26.83"></polygon><path class="kmd_subscribe_cls-3" d="M167.59,47.29l.78.78q5.14,2.15,10.28,4.3,5.14-2.13,10.28-4.3l.78-.78L194,37.07,189.7,26.83l-.78-.78-9.18-3.84L179.2,22l-.55-.23-.55.23-.55.23-9.18,3.84-.78.78-4.25,10.23ZM178.65,28l6.41,2.65,2.66,6.41-2.66,6.41-6.41,2.66-6.41-2.66-2.66-6.41,2.66-6.41Z"></path><polygon class="kmd_subscribe_cls-4" points="189.7 26.83 188.93 26.05 179.75 22.21 179.2 21.98 178.65 21.75 178.09 21.98 177.55 22.21 168.37 26.05 167.59 26.83 172.24 30.65 178.65 28 185.06 30.65 189.7 26.83"></polygon><path class="kmd_subscribe_cls-3" d="M108.43,47.29l.78.78q5.13,2.15,10.27,4.3,5.15-2.13,10.28-4.3l.78-.78,4.25-10.23-4.25-10.23-.78-.78-9.18-3.84L120,22l-.56-.23-.55.23-.55.23-9.17,3.84-.78.78-4.25,10.23ZM119.49,28l6.41,2.65,2.66,6.41-2.66,6.41-6.41,2.66-6.41-2.66-2.66-6.41,2.66-6.41Z"></path><path class="kmd_subscribe_cls-4" d="M130.55,26.83l-.78-.78c-3.42-1.44-6.85-2.88-10.28-4.3-3.43,1.42-6.85,2.87-10.27,4.3l-.78.78,4.65,3.82L119.49,28l6.41,2.65Z"></path></g></svg>
