<svg xmlns="http://www.w3.org/2000/svg" xmlns:xlink="http://www.w3.org/1999/xlink" version="1.1" id="Calque_1" x="0px" y="0px" width="50px" height="50px" viewBox="0 0 50 50" style="enable-background:new 0 0 148 50;" xml:space="preserve">

<g>
	<path class="st1" d="M15.9,17.9"/>
	<path d="M39.9,34.5c-0.2-1.2-0.6-2.4-0.9-3.5c-0.3-1.2-0.6-2.4-0.9-3.6c-0.8-3-1.6-6-2.4-9c-0.2-0.7-0.3-1.4-0.5-2.1     c-0.1-0.3-0.2-0.7-0.5-0.9c-0.3-0.1-0.6-0.1-0.9-0.1c-0.4,0-0.8,0-1.2,0c-0.8,0-1.7,0-2.5,0c-0.6,0-1.1,0-1.7,0.1     c-0.5,0.1-1,0.4-1.2,0.9c-0.1,0.2,0,0.5,0.2,0.6c0.1,0.1,0.3,0,0.4-0.1c0.1,0,0.4-0.3,0.5-0.3l4.7,17.3l0,0c0,0,0,0.1,0,0.1     c0.1,0.4,0.3,0.8,0.6,0.9c0.2,0.1,0.4,0.2,0.7,0.2h0.5h0.8h2.4h1.3C39.6,35.1,40,34.9,39.9,34.5z"/>
	<path d="M28.3,34.5c-0.2-1.2-0.6-2.4-0.9-3.5c-0.3-1.2-0.6-2.4-0.9-3.6c-0.8-3-1.6-6-2.4-9c-0.2-0.7-0.3-1.4-0.5-2.1     c-0.1-0.3-0.2-0.7-0.5-0.9c-0.3-0.1-0.6-0.1-0.9-0.1c-0.4,0-0.8,0-1.2,0c-0.8,0-1.7,0-2.5,0c-0.6,0-1.1,0-1.7,0.1     c-0.5,0.1-1,0.4-1.2,0.9c-0.1,0.2,0,0.5,0.2,0.6c0.1,0.1,0.3,0,0.4-0.1c0.1,0,0.4-0.3,0.5-0.3l4.7,17.3l0,0c0,0,0,0.1,0,0.1     c0.1,0.4,0.3,0.8,0.6,0.9c0.2,0.1,0.4,0.2,0.7,0.2h0.5h0.8h2.4h1.3C28,35.1,28.4,34.9,28.3,34.5z"/>
	<path d="M19.1,30.7l-3.2-12.5h0c0-0.2-0.2-0.4-0.5-0.4c-0.2,0-0.4,0.2-0.5,0.4l0,0L10.7,34l0,0c0,0.1,0,0.2,0,0.2    c0,0.5,0.4,1,1,1H17c0.4,0,0.8-0.3,0.9-0.7l0,0L19.1,30.7z"/>
	<path  d="M30.9,30.4l-3.5-12.6h0c0-0.2-0.2-0.3-0.4-0.3c-0.2,0-0.4,0.1-0.4,0.3h0l-0.7,2.5l3.5,12.2l0,0l0,0    c0.1,0.2,0.2,0.3,0.4,0.3c0.2,0,0.3-0.1,0.4-0.3l0,0L30.9,30.4z"/>
</g>
</svg>
